<?xml version="1.0" encoding="UTF-8"?>
<svg id="evrmore" xmlns="http://www.w3.org/2000/svg" version="1.1" viewBox="0 0 512 512">
  <!-- Generator: Adobe Illustrator 29.2.1, SVG Export Plug-In . SVG Version: 2.1.0 Build 116)  -->
  <defs>
    <style>
      .st0 {
        fill: #eee;
      }
    </style>
  </defs>
  <path class="st0" d="M256,0C114.6,0,0,114.6,0,256s114.6,256,256,256,256-114.6,256-256S397.4,0,256,0ZM256,478.4c-122.8,0-222.5-99.6-222.5-222.4S133.2,33.6,256,33.6s112.4,22.9,152.2,60.2l-155.2,214.9-59.3-75.6h-96.5l-27.1,30.9h50.4l120.4,155.6c3.7,3.5,7.4,5.3,11,5.6.3,0,.6,0,.9,0s.6,0,.9,0c3.6-.3,7.1-2.1,10.4-5.6l190.5-263.5c15.1,30,23.7,63.9,23.7,99.8,0,122.8-99.6,222.4-222.5,222.4Z"/>
</svg>