<?xml version="1.0" encoding="UTF-8"?>
<svg id="evrmore" xmlns="http://www.w3.org/2000/svg" version="1.1" viewBox="0 0 512 512">
  <!-- Generator: Adobe Illustrator 29.2.1, SVG Export Plug-In . SVG Version: 2.1.0 Build 116)  -->
  <defs>
    <style>
      .st0 {
        fill: #eee;
      }
    </style>
  </defs>
  <path class="st0" d="M377.3,30.5C340.9,10.7,299.3-.5,255-.5,113.6-.5-1,114.1-1,255.5s54.5,182.3,134.7,225.5c36.3,19.8,78,31,122.3,31,141.4,0,256-114.6,256-256s-54.5-182.3-134.7-225.5ZM33.5,256c0-122.8,99.7-222.4,222.5-222.4s11.3,0,16.6.2c52.3,4.1,99.5,26.3,135.5,60.3l-155,214.6-59.3-75.6h-96.5l-27.1,30.9h50.4l120.4,155.6c3.7,3.5,7.4,5.3,11,5.6h1.8c3.6-.3,7.1-2.1,10.4-5.6l190.2-263.1c14.8,29.8,23.2,63.4,23.2,98.9,0,122.8-99.6,222.4-222.5,222.4s-73.9-9.6-105.3-26.5c-69.2-37.7-116.2-111.1-116.2-195.4Z"/>
</svg>