<?xml version="1.0" encoding="UTF-8"?>
<svg id="evrmore" xmlns="http://www.w3.org/2000/svg" version="1.1" viewBox="0 0 512 512">
  <!-- Generator: Adobe Illustrator 29.2.1, SVG Export Plug-In . SVG Version: 2.1.0 Build 116)  -->
  <defs>
    <style>
      .st0 {
        fill-rule: evenodd;
      }

      .st0, .st1 {
        fill: #eee;
      }
    </style>
  </defs>
  <path class="st1" d="M255-.5C113.6-.5-1,114.1-1,255.5S113.6,511.5,255,511.5s256-114.6,256-256S396.4-.5,255-.5ZM255,477.9c-122.8,0-222.5-99.6-222.5-222.4S132.2,33.1,255,33.1s222.5,99.6,222.5,222.4-99.6,222.4-222.5,222.4Z"/>
  <path id="Path-2-Copy-6" class="st0" d="M69.1,263.5l27.1-30.9h96.5l59.3,75.6,158.4-219.3c9.2,8.3,18.1,16.4,26.1,27,8,10.7,17.4,19.8,23.2,31.8l-196.3,271.4c-3.6,3.8-7.4,5.7-11.4,5.7s-8-1.9-12-5.7l-120.5-155.6h-50.5Z"/>
</svg>