<?xml version="1.0" encoding="UTF-8"?>
<svg id="evrmore" xmlns="http://www.w3.org/2000/svg" version="1.1" viewBox="0 0 512 512">
  <!-- Generator: Adobe Illustrator 29.2.1, SVG Export Plug-In . SVG Version: 2.1.0 Build 116)  -->
  <defs>
    <style>
      .st0 {
        fill-rule: evenodd;
      }

      .st0, .st1 {
        fill: #eee;
      }
    </style>
  </defs>
  <path class="st1" d="M256,0C114.6,0,0,114.6,0,256s114.6,256,256,256,256-114.6,256-256S397.4,0,256,0ZM256,478.4c-122.8,0-222.5-99.6-222.5-222.4S133.2,33.6,256,33.6s222.5,99.6,222.5,222.4-99.6,222.4-222.5,222.4Z"/>
  <path id="_Фигура_1" data-name="Фигура_1" class="st0" d="M181,177.8l-12.4,37.2h151.9s18.6-3.3,12.4,15.5-20.3,57.7-21.7,62-4.6,6.2-12.4,6.2h-158.1l-15.5,37.2h198.4c6.2,0,28.1-.4,40.3-34.1,12.2-33.7,32.3-89.1,31-102.3-1-9.5-2.5-21.7-31-21.7h-182.9ZM230.6,239.8l-12.4,34.1h-96.1l12.4-34.1h96.1Z"/>
</svg>