<?xml version="1.0" encoding="UTF-8"?>
<svg id="firo" xmlns="http://www.w3.org/2000/svg" version="1.1" viewBox="0 0 512 512">
  <defs>
    <style>
      .st0 {
        fill: #eee;
      }
    </style>
  </defs>
  <path class="st0" d="M256,0C114.6,0,0,114.6,0,256s114.6,256,256,256,256-114.6,256-256S397.4,0,256,0ZM47.4,357.8c-15-30.7-23.4-65.3-23.4-101.6,0-128.3,104-232.1,232.1-232.1s126.2,27.9,168.5,72.6h-109.2c-5.4,0-10.3,3-12.8,7.7l-64.8,122.8h-83.4c-7.9,0-14.5,6.4-14.5,14.5v29.1c0,7.9,6.4,14.5,14.5,14.5h52.7l-34.1,64.8c-2.4,4.8-7.5,7.7-12.8,7.7h0c0,.1-112.8.1-112.8.1ZM255.9,488c-66.5,0-126.2-27.9-168.5-72.6h109.2c5.4,0,10.3-3,12.8-7.7l64.8-122.8h83.4c7.9,0,14.5-6.4,14.5-14.5v-29.1c0-7.9-6.4-14.5-14.5-14.5h-52.7l34.1-64.8c2.4-4.8,7.5-7.7,12.8-7.7h0c0-.1,112.8-.1,112.8-.1,15,30.7,23.4,65.3,23.4,101.6,0,128.3-104,232.1-232.1,232.1Z"/>
</svg>
