<?xml version="1.0" encoding="UTF-8"?>
<svg id="evrmore" xmlns="http://www.w3.org/2000/svg" version="1.1" viewBox="0 0 512 512">
  <!-- Generator: Adobe Illustrator 29.1.0, SVG Export Plug-In . SVG Version: 2.1.0 Build 142)  -->
  <defs>
    <style>
      .st0 {
        fill-rule: evenodd;
      }

      .st0, .st1 {
        fill: #eee;
      }
    </style>
  </defs>
  <path class="st1" d="M256,0C114.6,0,0,114.6,0,256s114.6,256,256,256,256-114.6,256-256S397.4,0,256,0ZM256,488c-128.1,0-232-103.9-232-232S127.9,24,256,24s232,103.9,232,232-103.9,232-232,232Z"/>
  <g>
    <path class="st0" d="M124.3,294.7c-10.2-65.9,7-93.8,19.7-106.6,40.7-40.9,149-41,185.2-48.5,11-1.7,21.8-5,31.9-9.8,7.2-3.2,14.1-6.8,20.9-10.7-6.4,11.5-14.4,22-23.7,31.2-4.8,4.7-9.9,9-15.4,13-24.6,17.6-50.7,33-77.9,46.1-72.7,33.5-94.9,32.9-122.9,62.5-6.6,7-12.6,14.7-17.8,22.8Z"/>
    <path class="st1" d="M344.8,161.9c-13.3,10.2-27.3,19.6-41.8,28-17.8,10.3-36.3,19.4-55.3,27.4-33,14.5-49.5,21.7-60.7,25.7-11,3.7-21.4,9.1-30.7,16-5.1,3.8-9.9,8.1-14.3,12.9,6.3-11.4,14-22,23.1-31.4,21.2-21.9,43.1-30.4,87.6-46.4,38.7-13.9,70.4-24.8,92.1-32.2Z"/>
    <path class="st1" d="M256.4,219.4"/>
    <path class="st0" d="M401.8,163.4c-44.2,1.5-87.5,45.9-133.3,53.1,84.1-.7,103.5-41.6,133.3-53.1Z"/>
    <path class="st0" d="M134.3,317.2c4.4,2.1,41.6,18.7,80.9-1.3,39.3-20,47.7-60.1,48.7-64.9.3-1.8.7-4.2.9-7,.7-9.4-.8-14.6-.2-14.8,1.1-.3,7.7,12.3,8.6,28.2.2,7-.5,13.9-2.2,20.7-15.7,60.9-58.4,70.8-58.4,70.8-27.8,6.4-58.6-6.3-78.4-31.7ZM123.7,317.4c-16.2,24.1-10.7,48.2,1,72.3.6-13.6,1.9-27.2,15.2-40.8-10.5-10.5-13.4-21-16.2-31.4h0Z"/>
    <path class="st0" d="M162.5,297.5c1.8-5.1,4.2-10,7.2-14.5,1.9-2.8,3.9-5.4,6.1-7.9,9.1-9.8,20.5-17,33.2-21.1.7-.2,4.9-1.4,10.4-2.8,2-.5,3.7-.9,4.9-1.2,10.2,30.9-17.8,68.2-61.8,47.5Z"/>
  </g>
</svg>