<?xml version="1.0" encoding="UTF-8"?>
<svg id="evrmore" xmlns="http://www.w3.org/2000/svg" version="1.1" viewBox="0 0 512 512">
  <!-- Generator: Adobe Illustrator 29.2.1, SVG Export Plug-In . SVG Version: 2.1.0 Build 116)  -->
  <defs>
    <style>
      .st0 {
        fill: #eee;
      }
    </style>
  </defs>
  <path class="st0" d="M256,0C114.6,0,0,114.6,0,256s114.6,256,256,256,256-114.6,256-256S397.4,0,256,0ZM256,478.4c-122.8,0-222.5-99.6-222.5-222.4S133.2,33.6,256,33.6s222.5,99.6,222.5,222.4-99.6,222.4-222.5,222.4Z"/>
  <path class="st0" d="M354.1,224.3c4.4-29.6-18.1-45.5-48.9-56.1l10-40.1-24.4-6.1-9.7,39c-6.4-1.6-13-3.1-19.6-4.6l9.8-39.3-24.4-6.1-10,40.1c-5.3-1.2-10.5-2.4-15.6-3.7h0c0-.1-33.7-8.5-33.7-8.5l-6.5,26.1s18.1,4.1,17.7,4.4c9.9,2.5,11.7,9,11.4,14.2l-11.4,45.7c.7.2,1.6.4,2.5.8-.8-.2-1.7-.4-2.6-.6l-16,64c-1.2,3-4.3,7.5-11.2,5.8.2.4-17.7-4.4-17.7-4.4l-12.1,27.9,31.8,7.9c5.9,1.5,11.7,3,17.4,4.5l-10.1,40.5,24.4,6.1,10-40.1c6.7,1.8,13.1,3.5,19.4,5l-10,39.9,24.4,6.1,10.1-40.5c41.6,7.9,72.9,4.7,86.1-32.9,10.6-30.3-.5-47.8-22.4-59.2,15.9-3.7,28-14.2,31.2-35.8ZM298.3,302.5c-7.5,30.3-58.6,13.9-75.1,9.8l13.4-53.7c16.5,4.1,69.6,12.3,61.7,43.9ZM305.9,223.9c-6.9,27.6-49.3,13.6-63.1,10.1l12.1-48.7c13.8,3.4,58.1,9.8,51,38.6Z"/>
</svg>