<?xml version="1.0" encoding="UTF-8"?>
<svg id="evrmore" xmlns="http://www.w3.org/2000/svg" version="1.1" viewBox="0 0 512.2 512.7">
  <!-- Generator: Adobe Illustrator 29.1.0, SVG Export Plug-In . SVG Version: 2.1.0 Build 142)  -->
  <defs>
    <style>
      .st0 {
        fill: #eee;
      }
    </style>
  </defs>
  <path class="st0" d="M492.5,158.2c-12.9-31.1-31.7-59.4-55.5-83.2-23.8-23.8-52-42.7-83.1-55.6C322.9,6.6,289.6,0,256,0s-66.9,6.6-98,19.5c-31.1,12.9-59.3,31.8-83.1,55.6-23.8,23.8-42.6,52.1-55.5,83.2C6.6,189.3,0,222.6,0,256.3s6.6,67,19.5,98.1c12.9,31.1,31.7,59.4,55.5,83.2,23.8,23.8,52,42.7,83.1,55.6,31.1,12.9,64.4,19.5,98,19.5s66.9-6.6,98-19.5,59.3-31.8,83.1-55.6,42.6-52.1,55.5-83.2c12.9-31.1,19.5-64.4,19.5-98.1s-6.6-67-19.5-98.1h-.2ZM403.3,95.2c3.7,0,7.3,1.6,9.8,4.3,3.6,3.8,4.7,9.2,3,14.1-22.9,64.2-32.3,93.6-19.6,149,14.4,63.1-26.5,129.1-90.1,149.1-43.2,13.5-87.2,2.1-115.3-26.8-22.1-9.7-51.8-41.8-63.4-63.4-28.9-28.2-40.3-72.2-26.8-115.4,19.9-63.7,85.8-104.7,148.9-90.2,55.3,12.7,84.6,3.2,148.8-19.7,1.5-.5,3.2-.8,4.8-.8v-.2ZM256,478.8c-122.6,0-222.2-99.8-222.2-222.5S133.4,33.8,256,33.8h0c52.5,0,100.8,18.3,138.9,48.9-.3,0-.7.2-1,.3-11.2,4-21.2,7.5-30.5,10.6-30.8-20.4-67.7-32.2-107.4-32.2-107.7,0-194.7,87.1-194.7,194.9s87,194.9,194.7,194.9,194.7-87.1,194.7-194.9-11.9-76.8-32.3-107.6c3.1-9.2,6.6-19.2,10.6-30.4.1-.3.2-.7.3-1,30.5,38.1,48.9,86.5,48.9,139,0,122.7-99.7,222.5-222.2,222.5h0Z"/>
  <path class="st0" d="M376.7,135.5c-16.4,6.6-37.8,15.5-60.7,25.7-47.6,21.3-101.3,49.4-118.4,66.5s-31.1,42.2-34.7,62.5c-2.8,15.3-1.1,28.6,4.6,38.9,2.5,2.7,5,5.4,7.7,8.1s5.4,5.3,8.1,7.7c10.3,5.7,23.6,7.4,38.9,4.6,20.3-3.6,43.1-15.4,62.4-34.8,17-17.1,45.2-70.8,66.4-118.5,10.2-22.9,19.1-44.4,25.7-60.8h0Z"/>
  <path class="st0" d="M223.5,140.5c-41.6.5-82.9,30.4-96.4,73.7-8.5,27.2-4.5,53.4,8.3,73.4.1-.8.2-1.5.4-2.3,4.8-26.7,19.4-54.1,42.4-77.1,20.7-20.7,60.1-41.5,100.3-60.2-11-.8-22.5-2.6-34.9-5.4-6-1.4-12-2.1-18-2.1h-2.1Z"/>
  <path class="st0" d="M364.2,233.9c-18.7,40.3-39.4,79.7-60.2,100.4-23,23-50.3,37.6-77,42.4-.8.1-1.5.3-2.3.4,20,12.8,46.2,16.8,73.4,8.3,50.2-15.7,82.4-68.9,71.5-116.6-2.8-12.4-4.6-23.9-5.4-34.9h0Z"/>
</svg>