<?xml version="1.0" encoding="UTF-8"?>
<svg id="evrmore" xmlns="http://www.w3.org/2000/svg" version="1.1" viewBox="0 0 512 512">
  <!-- Generator: Adobe Illustrator 29.2.1, SVG Export Plug-In . SVG Version: 2.1.0 Build 116)  -->
  <defs>
    <style>
      .st0 {
        fill: #eee;
      }
    </style>
  </defs>
  <path class="st0" d="M256,0C114.6,0,0,114.6,0,256s114.6,256,256,256,256-114.6,256-256S397.4,0,256,0ZM55.9,353.3c-14.3-29.4-22.4-62.4-22.4-97.3,0-122.8,99.7-222.4,222.5-222.4s120.2,26.4,160.7,68.7h-104.6c-5.2,0-9.9,2.9-12.3,7.4l-62.3,118h-80.2c-7.6,0-13.9,6.2-13.9,13.9v27.9c0,7.6,6.2,13.9,13.9,13.9h50.7l-32.8,62.3c-2.3,4.6-7.2,7.4-12.3,7.4h0c0,.1-107.1.1-107.1.1ZM256,478.4c-63.7,0-121.2-26.8-161.7-69.7h103.6c5.2,0,9.9-2.9,12.3-7.4l62.3-118h80.2c7.6,0,13.9-6.2,13.9-13.9v-27.9c0-7.6-6.2-13.9-13.9-13.9h-50.7l32.8-62.3c2.3-4.6,7.2-7.4,12.3-7.4h0c0-.1,108.5-.1,108.5-.1,14.7,29.7,22.9,63,22.9,98.3,0,122.8-99.6,222.4-222.5,222.4Z"/>
</svg>