<?xml version="1.0" encoding="UTF-8"?>
<svg id="evrmore" xmlns="http://www.w3.org/2000/svg" version="1.1" viewBox="0 0 512 512">
  <!-- Generator: Adobe Illustrator 29.2.1, SVG Export Plug-In . SVG Version: 2.1.0 Build 116)  -->
  <defs>
    <style>
      .st0 {
        fill: #eee;
      }
    </style>
  </defs>
  <path class="st0" d="M256,0C114.6,0,0,114.6,0,256s114.6,256,256,256,256-114.6,256-256S397.4,0,256,0ZM256,478.4c-122.8,0-222.5-99.6-222.5-222.4S133.2,33.6,256,33.6s222.5,99.6,222.5,222.4-99.6,222.4-222.5,222.4Z"/>
  <path class="st0" d="M197,411.5c5.2,0,10.1-2.9,12.5-7.6l63.4-120.1h81.6c7.7,0,14.1-6.3,14.1-14.1v-28.4c0-7.7-6.3-14.1-14.1-14.1h-51.6l33.4-63.4c2.3-4.7,7.3-7.6,12.5-7.6h0c0-.1,109.7-.1,109.7-.1-10.2-20.8-23.5-39.8-39.3-56.4h-106c-5.2,0-10.1,2.9-12.5,7.6l-63.4,120.1h-81.6c-7.7,0-14.1,6.3-14.1,14.1v28.4c0,7.7,6.3,14.1,14.1,14.1h51.6l-33.4,63.4c-2.3,4.7-7.3,7.6-12.5,7.6h0c0,.1-110,.1-110,.1,10.2,20.8,23.5,39.8,39.3,56.4h106.3Z"/>
</svg>