<?xml version="1.0" encoding="UTF-8"?>
<svg id="evrmore" xmlns="http://www.w3.org/2000/svg" version="1.1" viewBox="0 0 512 512">
  <!-- Generator: Adobe Illustrator 29.1.0, SVG Export Plug-In . SVG Version: 2.1.0 Build 142)  -->
  <defs>
    <style>
      .st0 {
        fill: #eee;
      }
    </style>
  </defs>
  <path class="st0" d="M256,0C114.6,0,0,114.6,0,256s114.6,256,256,256,256-114.6,256-256S397.4,0,256,0ZM256,478.4c-122.8,0-222.5-99.6-222.5-222.4S133.2,33.6,256,33.6s222.5,99.6,222.5,222.4-99.6,222.4-222.5,222.4Z"/>
  <path class="st0" d="M240.7,120.4h-77.9v120.7h-32v29.6h32v120.7h90.8s127.6,10.7,127.6-133.2-122.1-137.7-140.5-137.7ZM251.5,341.3h-37.6v-70.6h56.3v-29.6h-56.3v-70.6h35.8c13.4,0,80.8,5.4,80.9,88.6.1,83.2-69.5,82.1-79.1,82.1Z"/>
</svg>