<?xml version="1.0" encoding="UTF-8"?>
<svg id="evrmore" xmlns="http://www.w3.org/2000/svg" version="1.1" viewBox="0 0 512 512">
  <!-- Generator: Adobe Illustrator 29.2.1, SVG Export Plug-In . SVG Version: 2.1.0 Build 116)  -->
  <defs>
    <style>
      .st0 {
        fill-rule: evenodd;
      }

      .st0, .st1 {
        fill: #eee;
      }
    </style>
  </defs>
  <path class="st1" d="M256,0C114.6,0,0,114.6,0,256s114.6,256,256,256,256-114.6,256-256S397.4,0,256,0ZM256,478.4c-122.8,0-222.5-99.6-222.5-222.4S133.2,33.6,256,33.6s222.5,99.6,222.5,222.4-99.6,222.4-222.5,222.4Z"/>
  <polygon class="st0" points="334.7 185.8 334.7 151.8 273.7 151.8 273.7 114.3 236.3 114.3 236.3 151.8 175.3 151.8 175.3 196.9 269.8 196.9 175.3 325.2 175.3 359.2 236.3 359.2 236.3 396.6 273.7 396.6 273.7 359.2 334.7 359.2 334.7 314.1 240.1 314.1 334.7 185.8"/>
</svg>