<?xml version="1.0" encoding="UTF-8"?>
<svg id="evrmore" xmlns="http://www.w3.org/2000/svg" version="1.1" viewBox="0 0 512 512">
  <!-- Generator: Adobe Illustrator 29.2.1, SVG Export Plug-In . SVG Version: 2.1.0 Build 116)  -->
  <defs>
    <style>
      .st0 {
        fill-rule: evenodd;
      }

      .st0, .st1 {
        fill: #eee;
      }
    </style>
  </defs>
  <g>
    <path class="st0" d="M140.5,273.6c4.2-4.4,8.2-8.2,12.3-11.4.7-.5,1.2-1,1.9-1.5,9.3-6.9,19.7-12.3,30.7-16,11.2-4,27.7-11.2,60.7-25.7,19-8,37.5-17.1,55.3-27.4,14.5-8.4,28.5-17.8,41.8-28h0c4.8-3.6,9.3-7.5,13.6-11.7,9.3-9.2,17.3-19.7,23.7-31.2-6.8,3.9-13.7,7.5-20.9,10.7-10.1,4.8-20.9,8.1-31.9,9.8-36.2,7.5-144.4,7.6-185.1,48.5-12.7,12.8-29.9,40.7-19.7,106.6,5.2-8.1,11.2-15.8,17.8-22.8h-.3Z"/>
    <polygon class="st0" points="343 163.6 343 163.6 343 163.6 343 163.6"/>
    <path class="st0" d="M400,165.1c-44.2,1.5-87.4,45.9-133.2,53.1,84-.7,103.5-41.5,133.2-53.1Z"/>
    <path class="st0" d="M262.9,230.9c-.6.2.9,5.4.2,14.8-.2,2.8-.6,5.2-.9,7-1,4.8-9.4,44.9-48.7,64.9-39.3,20-76.4,3.4-80.9,1.3h0c19.8,25.4,50.5,38.1,78.3,31.7,0,0,42.7-9.9,58.4-70.7,1.7-6.8,2.4-13.7,2.2-20.7-.9-15.9-7.5-28.5-8.6-28.2h0Z"/>
    <path class="st0" d="M122.1,319c-16.2,24.1-10.7,48.2,1,72.3.6-13.6,1.9-27.2,15.2-40.8-10.5-10.5-13.4-21-16.2-31.4h0Z"/>
    <path class="st0" d="M207.3,255.7c-12.7,4.1-24.1,11.3-33.2,21.1-2.2,2.5-4.2,5.1-6.1,7.9-3,4.5-5.4,9.4-7.2,14.5,44,20.7,72-16.6,61.7-47.5-1.2.3-2.9.7-4.9,1.2-5.5,1.4-9.7,2.6-10.4,2.8h0Z"/>
  </g>
  <path class="st1" d="M256.8-.8C115.4-.8.8,113.8.8,255.2s114.6,256,256,256,256-114.6,256-256S398.2-.8,256.8-.8ZM256.8,477.6c-122.8,0-222.5-99.6-222.5-222.4S134,32.8,256.8,32.8s222.5,99.6,222.5,222.4-99.6,222.4-222.5,222.4h0Z"/>
</svg>