<?xml version="1.0" encoding="UTF-8"?>
<svg id="evrmore" xmlns="http://www.w3.org/2000/svg" version="1.1" viewBox="0 0 512 512">
  <!-- Generator: Adobe Illustrator 29.1.0, SVG Export Plug-In . SVG Version: 2.1.0 Build 142)  -->
  <defs>
    <style>
      .st0 {
        fill-rule: evenodd;
      }

      .st0, .st1 {
        fill: #eee;
      }
    </style>
  </defs>
  <g>
    <path class="st0" d="M146.6,269.3c4.4-4.6,8.6-8.6,13-12,.7-.5,1.3-1.1,2-1.6,9.8-7.3,20.8-13,32.4-16.9,11.8-4.2,29.2-11.8,64-27.1,20-8.4,39.5-18,58.3-28.9,15.3-8.9,30-18.8,44.1-29.5,0,0,0,0,0,0,5.1-3.8,9.8-7.9,14.3-12.3,9.8-9.7,18.2-20.8,25-32.9-7.2,4.1-14.4,7.9-22,11.3-10.6,5.1-22,8.5-33.6,10.3-38.2,7.9-152.3,8-195.2,51.1-13.4,13.5-31.5,42.9-20.8,112.4,5.5-8.5,11.8-16.7,18.8-24Z"/>
    <polygon class="st0" points="360.2 153.3 360.2 153.3 360.2 153.3 360.2 153.3"/>
    <path class="st0" d="M420.3,154.9c-46.6,1.6-92.2,48.4-140.5,56,88.6-.7,109.1-43.8,140.5-56Z"/>
    <path class="st0" d="M275.7,224.3c-.6.2.9,5.7.2,15.6-.2,3-.6,5.5-.9,7.4-1.1,5.1-9.9,47.3-51.3,68.4-41.4,21.1-80.6,3.6-85.3,1.4h-.1c20.9,26.8,53.3,40.2,82.6,33.4,0,0,45-10.4,61.6-74.6,1.8-7.2,2.5-14.4,2.3-21.8-.9-16.8-7.9-30-9.1-29.7Z"/>
    <path class="st0" d="M127.2,317.2c-17.1,25.4-11.3,50.8,1.1,76.2.6-14.3,2-28.7,16-43-11.1-11.1-14.1-22.1-17.1-33.1h0Z"/>
    <path class="st0" d="M217.1,250.4c-13.4,4.3-25.4,11.9-35,22.2-2.3,2.6-4.4,5.4-6.4,8.3-3.2,4.7-5.7,9.9-7.6,15.3,46.4,21.8,75.9-17.5,65.1-50.1-1.3.3-3.1.7-5.2,1.3-5.8,1.5-10.2,2.7-11,3Z"/>
  </g>
  <path class="st1" d="M256.8-.8C115.4-.8.8,113.8.8,255.2s114.6,256,256,256,256-114.6,256-256S398.2-.8,256.8-.8ZM256.8,477.6c-122.8,0-222.5-99.6-222.5-222.4S134,32.8,256.8,32.8s222.5,99.6,222.5,222.4-99.6,222.4-222.5,222.4Z"/>
</svg>