<?xml version="1.0" encoding="UTF-8"?>
<svg id="evrmore" xmlns="http://www.w3.org/2000/svg" version="1.1" viewBox="0 0 512 512">
  <!-- Generator: Adobe Illustrator 29.2.1, SVG Export Plug-In . SVG Version: 2.1.0 Build 116)  -->
  <defs>
    <style>
      .st0 {
        fill-rule: evenodd;
      }

      .st0, .st1 {
        fill: #eee;
      }
    </style>
  </defs>
  <g>
    <path class="st0" d="M151.7,271.9c3.8-3.9,7.4-7.4,11.1-10.3.6-.4,1.1-.9,1.7-1.4,8.4-6.2,17.8-11.1,27.7-14.5,10.1-3.6,25-10.1,54.8-23.2,17.1-7.2,33.8-15.4,49.9-24.7,13.1-7.6,25.7-16.1,37.7-25.3h0c4.4-3.3,8.4-6.8,12.2-10.5,8.4-8.3,15.6-17.8,21.4-28.2-6.2,3.5-12.3,6.8-18.8,9.7-9.1,4.4-18.8,7.3-28.8,8.8-32.7,6.8-130.4,6.8-167.1,43.7-11.5,11.6-27,36.7-17.8,96.2,4.7-7.3,10.1-14.3,16.1-20.5h-.3Z"/>
    <polygon class="st0" points="334.6 172.6 334.6 172.6 334.6 172.6 334.6 172.6"/>
    <path class="st0" d="M386,174c-39.9,1.4-78.9,41.4-120.3,47.9,75.8-.6,93.4-37.5,120.3-47.9Z"/>
    <path class="st0" d="M262.2,233.4c-.5.2.8,4.9.2,13.4-.2,2.6-.5,4.7-.8,6.3-.9,4.4-8.5,40.5-43.9,58.5-35.4,18.1-69,3.1-73,1.2h0c17.9,22.9,45.6,34.4,70.7,28.6,0,0,38.5-8.9,52.7-63.9,1.5-6.2,2.1-12.3,2-18.7-.8-14.4-6.8-25.7-7.8-25.4h0Z"/>
    <path class="st0" d="M135.1,312.9c-14.6,21.7-9.7,43.5.9,65.2.5-12.2,1.7-24.6,13.7-36.8-9.5-9.5-12.1-18.9-14.6-28.3h0Z"/>
    <path class="st0" d="M212.1,255.7c-11.5,3.7-21.7,10.2-30,19-2,2.2-3.8,4.6-5.5,7.1-2.7,4-4.9,8.5-6.5,13.1,39.7,18.7,65-15,55.7-42.9-1.1.3-2.7.6-4.5,1.1-5,1.3-8.7,2.3-9.4,2.6h0Z"/>
  </g>
  <path class="st1" d="M256.8-.8C115.4-.8.8,113.8.8,255.2s114.6,256,256,256,256-114.6,256-256S398.2-.8,256.8-.8ZM256.8,477.6c-122.8,0-222.5-99.6-222.5-222.4S134,32.8,256.8,32.8s222.5,99.6,222.5,222.4-99.6,222.4-222.5,222.4h0Z"/>
</svg>