<?xml version="1.0" encoding="UTF-8"?>
<svg id="evrmore" xmlns="http://www.w3.org/2000/svg" version="1.1" viewBox="0 0 512 512">
  <!-- Generator: Adobe Illustrator 29.1.0, SVG Export Plug-In . SVG Version: 2.1.0 Build 142)  -->
  <defs>
    <style>
      .st0 {
        fill-rule: evenodd;
      }

      .st0, .st1 {
        fill: #eee;
      }
    </style>
  </defs>
  <path class="st1" d="M256.8-.8C115.4-.8.8,113.8.8,255.2s114.6,256,256,256,256-114.6,256-256S398.2-.8,256.8-.8ZM256.8,477.6c-122.8,0-222.5-99.6-222.5-222.4S134,32.8,256.8,32.8s222.5,99.6,222.5,222.4-99.6,222.4-222.5,222.4h0Z"/>
  <path class="st0" d="M286.4,374.6c-4,.3-7.1.4-9,.4-62.9.1-114-51.1-114-114v-3.1h0v-120.8h0c38.2-.6,132.4,7.7,184.3,80,13.5,18.7,21.4,41.7,21.4,66.4s-2.9,29.1-8.1,42.1h0c-3.3,8.8-12.2,27-35.3,38.6-3.7,1.8-7.5,3.4-11.3,4.7,16.6-63.5-5.1-155.5-101.4-199.7,58.5,36.3,104.7,127.6,73.4,205.5Z"/>
</svg>