<?xml version="1.0" encoding="UTF-8"?>
<svg id="evrmore" xmlns="http://www.w3.org/2000/svg" version="1.1" viewBox="0 0 512 512">
  <!-- Generator: Adobe Illustrator 29.2.1, SVG Export Plug-In . SVG Version: 2.1.0 Build 116)  -->
  <defs>
    <style>
      .st0 {
        fill: #eee;
      }
    </style>
  </defs>
  <path class="st0" d="M256,0C114.6,0,0,114.6,0,256s114.6,256,256,256,256-114.6,256-256S397.4,0,256,0ZM256,478.4c-122.8,0-222.5-99.6-222.5-222.4S133.2,33.6,256,33.6s222.5,99.6,222.5,222.4-99.6,222.4-222.5,222.4Z"/>
  <g>
    <path class="st0" d="M251.8,214.2l-138.7,93.4,202.6-65.6s-63.9-27.8-63.9-27.8ZM234.4,213.1l-86.2,2.9-12.7,35.9,98.6-38.8h.2Z"/>
    <path class="st0" d="M339.6,340l-221.9-30.5,199.9-62.9,22,93.4h0ZM286.9,221.7l12.2-33-63.9-27.8s51.7,60.8,51.7,60.8ZM305.4,186.3l14.3,51.9,85.3-22.6-99.7-29.5v.2Z"/>
    <path class="st0" d="M242.9,214.8l-109.6,42.8-26.4,48.8,136-91.6ZM177.9,181.2l-27.4,30.3,90.9-2.3-63.5-28ZM225.9,157.7l-43.4,20.1,99,43.6-55.6-63.7h0ZM276.5,156h-46.7l72.2,28-25.5-28ZM302.5,192.2l-11.2,33.2,22.4,10.8-11.2-44Z"/>
  </g>
</svg>