<?xml version="1.0" encoding="UTF-8"?>
<svg id="evrmore" xmlns="http://www.w3.org/2000/svg" version="1.1" viewBox="0 0 512 512">
  <!-- Generator: Adobe Illustrator 29.2.1, SVG Export Plug-In . SVG Version: 2.1.0 Build 116)  -->
  <defs>
    <style>
      .st0 {
        fill: #eee;
      }
    </style>
  </defs>
  <path class="st0" d="M256,0C114.6,0,0,114.6,0,256s114.6,256,256,256,256-114.6,256-256S397.4,0,256,0ZM256,478.4c-122.8,0-222.5-99.6-222.5-222.4S133.2,33.6,256,33.6s222.5,99.6,222.5,222.4-99.6,222.4-222.5,222.4Z"/>
  <g>
    <path class="st0" d="M242.7,351.2l-87,62.5,55.3-254.3,31.8,191.8ZM244.5,350.6l53,.7-84.5-190.9,31.5,190.2ZM302.5,346.4l40.6-150.4-15.4-18.8-25.2,169.2ZM282.9,110.6l-66.8,45,97.6-31.6-30.8-13.4ZM274.5,110.6l-41.5,1.4-6.1,17.3,47.5-18.7Z"/>
    <path class="st0" d="M324.8,171.4l-106.9-14.7,96.3-30.3,10.6,45ZM299.4,114.9l5.9-15.9-30.8-13.4,24.9,29.3ZM308.3,97.4l6.9,25,41.1-10.9-48-14.2Z"/>
    <path class="st0" d="M299.8,350.3l-85.7-191.7,111.7,15.6-26,176.1ZM279.7,110.6l-52.8,20.6-12.7,23.5,65.5-44.1ZM246.9,94.9l-13.2,14.6,43.8-1.1-30.6-13.5ZM270,83.6l-20.9,9.7,47.7,21-26.8-30.7ZM293.9,82.3h-22.5l34.8,13.5-12.3-13.5ZM306.9,100.2l-5.4,16,10.8,5.2-5.4-21.2Z"/>
  </g>
</svg>