<?xml version="1.0" encoding="UTF-8"?>
<svg id="evrmore" xmlns="http://www.w3.org/2000/svg" version="1.1" viewBox="0 0 512 512">
  <!-- Generator: Adobe Illustrator 29.2.1, SVG Export Plug-In . SVG Version: 2.1.0 Build 116)  -->
  <defs>
    <style>
      .st0 {
        fill: #eee;
      }
    </style>
  </defs>
  <path class="st0" d="M256,0C114.6,0,0,114.6,0,256s114.6,256,256,256,256-114.6,256-256S397.4,0,256,0ZM256,478.4c-122.8,0-222.5-99.6-222.5-222.4S133.2,33.6,256,33.6s222.5,99.6,222.5,222.4-99.6,222.4-222.5,222.4Z"/>
  <g>
    <path class="st0" d="M251.1,208.3l-162.8,109.7,237.8-77s-75-32.7-75-32.7ZM230.6,207.1l-101.1,3.4-14.9,42.2,115.7-45.6h.2Z"/>
    <path class="st0" d="M354.2,356l-260.5-35.8,234.7-73.8,25.8,109.7h0ZM292.3,217.1l14.4-38.7-75-32.7s60.7,71.4,60.7,71.4ZM314,175.6l16.8,60.9,100.1-26.6-117-34.6v.2Z"/>
    <path class="st0" d="M240.7,209l-128.7,50.2-30.9,57.3,159.6-107.5ZM164.4,169.5l-32.2,35.6,106.7-2.7-74.6-32.9ZM220.6,142l-50.9,23.6,116.2,51.2-65.3-74.8h0ZM280.1,140h-54.8l84.8,32.9-30-32.9ZM310.6,182.5l-13.2,39,26.3,12.7-13.2-51.7Z"/>
  </g>
</svg>