<?xml version="1.0" encoding="UTF-8"?>
<svg id="evrmore" xmlns="http://www.w3.org/2000/svg" version="1.1" viewBox="0 0 512 512">
  <!-- Generator: Adobe Illustrator 29.2.1, SVG Export Plug-In . SVG Version: 2.1.0 Build 116)  -->
  <defs>
    <style>
      .st0 {
        fill: #eee;
      }
    </style>
  </defs>
  <path class="st0" d="M256,0C114.6,0,0,114.6,0,256s114.6,256,256,256,256-114.6,256-256S397.4,0,256,0ZM256,478.4c-122.8,0-222.5-99.6-222.5-222.4S133.2,33.6,256,33.6s222.5,99.6,222.5,222.4-99.6,222.4-222.5,222.4Z"/>
  <g>
    <path class="st0" d="M251.9,223l-135.2,91,197.5-63.9s-62.3-27.1-62.3-27.1ZM234.9,222l-84,2.8-12.3,35,96.1-37.8h.2Z"/>
    <path class="st0" d="M337.5,345.6l-216.3-29.7,194.8-61.3,21.4,91h0ZM286.1,230.3l11.9-32.2-62.3-27.1s50.4,59.3,50.4,59.3ZM304.1,195.9l14,50.6,83.2-22.1-97.1-28.7v.2Z"/>
    <path class="st0" d="M243.3,223.6l-106.8,41.7-25.7,47.5,132.5-89.2ZM179.9,190.9l-26.7,29.5,88.6-2.2-61.9-27.3ZM226.6,168l-42.3,19.6,96.5,42.5-54.2-62.1h0ZM276,166.4h-45.5l70.4,27.3-24.9-27.3ZM301.3,201.6l-10.9,32.4,21.9,10.5-10.9-42.9Z"/>
  </g>
</svg>