<?xml version="1.0" encoding="UTF-8"?>
<svg id="evrmore" xmlns="http://www.w3.org/2000/svg" version="1.1" viewBox="0 0 512 512">
  <!-- Generator: Adobe Illustrator 29.2.1, SVG Export Plug-In . SVG Version: 2.1.0 Build 116)  -->
  <defs>
    <style>
      .st0 {
        fill: #eee;
      }
    </style>
  </defs>
  <path class="st0" d="M256,0C114.6,0,0,114.6,0,256s114.6,256,256,256,256-114.6,256-256S397.4,0,256,0ZM256,478.4c-122.8,0-222.5-99.6-222.5-222.4S133.2,33.6,256,33.6s222.5,99.6,222.5,222.4-99.6,222.4-222.5,222.4Z"/>
  <path class="st0" d="M243,314.5l14.4-54.4,34.2-12.5,8.5-32-.3-.8-33.7,12.3,24.3-91.3h-68.8l-31.7,119.2-26.5,9.7-8.8,33,26.5-9.7-18.7,70.2h183.1l11.7-43.7h-114.3"/>
</svg>