<?xml version="1.0" encoding="UTF-8"?>
<svg id="evrmore" xmlns="http://www.w3.org/2000/svg" version="1.1" viewBox="0 0 512 512">
  <defs>
    <style>
      .st0 {
        fill: #eee;
      }
    </style>
  </defs>
  <path class="st0" d="M256,0C114.6,0,0,114.6,0,256s114.6,256,256,256,256-114.6,256-256S397.4,0,256,0ZM256,488c-128.1,0-232-103.9-232-232S127.9,24,256,24s232,103.9,232,232-103.9,232-232,232Z"/>
  <path class="st0" d="M295.9,261.3l77.6-86.8c8.1-9,9.9-21.3,4.6-32-5.3-10.7-16-17.4-28.1-17.4h-188.2c-12.1,0-22.8,6.6-28.1,17.4-5.3,10.7-3.4,23,4.6,32l77.6,86.8v.6l-77.6,86.8c-7.9,9-9.7,21.3-4.6,32,5.1,10.7,15.8,17.4,28.1,17.4h94v-.2h94c12.3,0,23-6.6,28.1-17.4,5.1-10.7,3.2-23-4.6-32l-77.6-86.8.2.2v-.6ZM272.9,281l77.6,86.8v.2s0,.6-.2.6h-94.4l-.4.2h-93.8c-.2,0-.2-.6-.2-.6v-.2l77.6-86.8c9.9-11.1,9.9-27.9,0-39l-77.6-86.8v-.2c0-.2.2-.6.2-.6h94.2l.4-.2h94s.2.4.2.6v.2l-77.6,86.8c-9.9,11.1-9.9,27.9,0,39Z"/>
</svg>
